<svg width="37" height="37" viewBox="0 0 37 37" fill="none" xmlns="http://www.w3.org/2000/svg">
<path fill-rule="evenodd" clip-rule="evenodd" d="M13.242 0C12.9602 2.20365 13.065 4.47398 13.5982 6.69644C15.8257 15.9807 24.9985 22.216 34.6721 19.6107C35.4794 19.3933 36.256 19.1235 37 18.8062V20.08L15.6579 22.3209L11.5088 0H13.242ZM21.2543 0C20.9441 1.4768 20.9473 3.05036 21.323 4.61604C22.6059 9.96342 27.7469 13.1939 32.8057 11.8315C34.4381 11.3918 35.8625 10.5277 37 9.37904V0H21.2543ZM37 37H18.3865L17.1244 30.2104L37 28.1235V37ZM7.67664 23.159L3.37177 0H0V23.965L7.67664 23.159ZM10.2495 37L9.14316 31.0484L0 32.0085V37H10.2495Z" fill="white"/>
</svg>

